<svg width="66" height="42" viewBox="0 0 66 42" fill="none" xmlns="http://www.w3.org/2000/svg">
<g clip-path="url(#clip0_3_9240)">
<g clip-path="url(#clip1_3_9240)">
<path fill-rule="evenodd" clip-rule="evenodd" d="M57.9183 16.3996V7.74222C57.9044 5.84618 57.1278 4.0322 55.7575 2.69471C54.3871 1.35722 52.5339 0.604368 50.6006 0.599854H15.3979C13.4646 0.604368 11.6113 1.35722 10.241 2.69471C8.8707 4.0322 8.09413 5.84618 8.08017 7.74222V16.3996C1.18616 18.7112 1.35388 24.8666 1.35388 34.156C1.34688 34.8425 1.4787 35.5235 1.74173 36.1597C2.00476 36.796 2.39377 37.3748 2.88628 37.8626C3.37878 38.3505 3.96501 38.7378 4.61106 39.002C5.25711 39.2663 5.95017 39.4024 6.65017 39.4024H11.2315V41.584H14.1886V39.4024H51.7658V41.584H54.7229V39.4024H59.3042C60.0042 39.4024 60.6973 39.2663 61.3433 39.002C61.9894 38.7378 62.5756 38.3505 63.0681 37.8626C63.5606 37.3748 63.9496 36.796 64.2126 36.1597C64.4757 35.5235 64.6075 34.8425 64.6005 34.156C64.6446 24.8666 64.777 18.7112 57.9183 16.3996ZM10.2517 7.74222C10.2563 6.41189 10.7972 5.13735 11.7563 4.19666C12.7155 3.25598 14.015 2.72548 15.3714 2.72092H50.6006C51.957 2.72548 53.2565 3.25598 54.2157 4.19666C55.1748 5.13735 55.7157 6.41189 55.7204 7.74222V15.8023C54.6296 15.6105 53.5264 15.4947 52.419 15.456V13.5254C52.419 12.4783 51.9949 11.4742 51.2401 10.7339C50.4852 9.99351 49.4614 9.57759 48.3938 9.57759H39.5667C38.4983 9.57758 37.4736 9.99323 36.7173 10.7333C35.961 11.4734 35.535 12.4776 35.5326 13.5254V15.2568H29.6008V13.5254C29.5961 12.4798 29.1706 11.4783 28.4167 10.7389C27.6628 9.99953 26.6417 9.58214 25.5756 9.57759H16.7484C16.2176 9.57416 15.6914 9.67374 15.1999 9.8706C14.7085 10.0675 14.2617 10.3577 13.8851 10.7246C13.5085 11.0916 13.2096 11.5279 13.0057 12.0086C12.8018 12.4893 12.6968 13.0047 12.6968 13.5254V15.5166C11.8765 15.5801 11.0602 15.687 10.2517 15.8369V7.74222ZM50.2122 13.5254V15.3261C46.9638 15.2309 42.868 15.2655 37.7218 15.3261V13.5946C37.7183 13.356 37.7632 13.119 37.8539 12.8975C37.9446 12.676 38.0793 12.4745 38.2501 12.3045C38.4209 12.1345 38.6245 11.9995 38.849 11.9074C39.0735 11.8153 39.3145 11.7679 39.5578 11.7679H48.385C48.8615 11.7743 49.3172 11.9605 49.6575 12.2878C49.9977 12.615 50.1964 13.0582 50.2122 13.5254ZM27.4117 13.5254V15.2568C22.1154 15.2568 18.099 15.1876 14.9124 15.3174V13.5254C14.91 13.0447 15.1019 12.5826 15.446 12.2403C15.79 11.898 16.2583 11.7032 16.7484 11.6987H25.5756C26.0657 11.7032 26.534 11.898 26.8781 12.2403C27.2222 12.5826 27.414 13.0447 27.4117 13.5254ZM62.4555 34.156C62.4555 34.9789 62.1247 35.7686 61.5347 36.3538C60.9447 36.9389 60.1432 37.2722 59.3042 37.2813H6.69431C5.85131 37.2745 5.0448 36.9431 4.44869 36.3584C3.85258 35.7738 3.51462 34.9828 3.5077 34.156V30.4939H62.4908C62.4908 31.6626 62.4555 32.892 62.4555 34.156ZM3.5077 28.3728C3.66659 21.6806 4.92888 17.7588 13.9149 17.4125C17.9401 17.2567 23.8013 17.4125 32.5932 17.4125H33.4053C42.2325 17.4125 48.0584 17.2221 52.0836 17.4125C61.0696 17.7588 62.3319 21.6806 62.4908 28.3728H3.5077Z" fill="#CDAE6C"/>
</g>
</g>
<defs>
<clipPath id="clip0_3_9240">
<rect width="66" height="41.5556" fill="white" transform="translate(0 0.333984)"/>
</clipPath>
<clipPath id="clip1_3_9240">
<rect width="66" height="41.5556" fill="white" transform="translate(0 0.333496)"/>
</clipPath>
</defs>
</svg>
