<svg width="68" height="59" viewBox="0 0 68 59" fill="none" xmlns="http://www.w3.org/2000/svg">
<path d="M42.0298 26.0805C41.4293 25.5689 40.6667 25.2866 39.8805 25.2866H21.0375C18.2382 25.2866 15.8615 27.2123 15.2574 29.9689L14.2925 34.3717C14.2459 34.586 14.2976 34.8096 14.4339 34.9811C14.5695 35.1519 14.7761 35.2518 14.9927 35.2518H50.8286C51.1299 35.2518 51.3989 35.0621 51.5022 34.777C51.6055 34.4912 51.5208 34.172 51.2913 33.9759L42.0298 26.0805ZM16.6585 30.2815C17.1162 28.1929 18.9161 26.734 21.0375 26.734H30.4676V33.8044H15.8866L16.6585 30.2815ZM31.9016 33.8044V26.734H39.8805C40.3274 26.734 40.7621 26.8946 41.1036 27.1856L48.8687 33.8044H31.9016ZM22.5863 43.7985C19.0259 43.7985 16.1298 46.7207 16.1298 50.3116C16.1298 53.9025 19.0259 56.8248 22.5863 56.8248C26.1467 56.8248 29.0428 53.9025 29.0428 50.3116C29.0428 46.7207 26.1467 43.7985 22.5863 43.7985ZM22.5863 55.3774C19.8179 55.3774 17.5646 53.105 17.5646 50.3116C17.5646 47.5182 19.8179 45.2458 22.5863 45.2458C25.3547 45.2458 27.608 47.5182 27.608 50.3116C27.608 53.105 25.3547 55.3774 22.5863 55.3774ZM62.7545 34.3392L53.8165 31.4741L44.3053 23.3681C43.07 22.3152 41.4996 21.7355 39.8826 21.7355H21.0367C16.6442 21.7355 12.7681 24.8748 11.8204 29.1996L10.8907 33.4454C5.95287 32.0444 2.43478 27.4251 2.43478 22.1835C2.43478 19.0542 3.64215 16.1132 5.83235 13.9023C8.02398 11.6915 10.9395 10.4742 14.0415 10.4742H27.5356C27.8763 13.3458 30.3018 15.5806 33.2388 15.5806H35.937V17.3246H41.3963V13.7721H45.7473C46.144 13.7721 46.4647 13.4479 46.4647 13.0484C46.4647 12.6489 46.144 12.3247 45.7473 12.3247H41.3963V7.17425H45.7473C46.144 7.17425 46.4647 6.85004 46.4647 6.45057C46.4647 6.05109 46.144 5.72688 45.7473 5.72688H41.3963V2.17432H35.937V3.9828H33.2388C30.3234 3.9828 27.9137 6.18497 27.5449 9.02616H14.0422C10.5571 9.02616 7.28076 10.3939 4.81867 12.8783C2.35587 15.3635 1 18.6678 1 22.1835C1 28.0996 4.99085 33.3101 10.5815 34.8573L8.15598 45.9355C7.87907 47.1802 8.1732 48.4662 8.9652 49.4627C9.75791 50.4629 10.9423 51.036 12.2128 51.036H14.7086V50.3123C14.7086 45.9268 18.2425 42.3591 22.5856 42.3591C26.933 42.3591 30.4697 45.9268 30.4697 50.3123V51.036H44.3577V50.3123C44.3577 45.9268 47.8952 42.3591 52.2418 42.3591C56.5856 42.3591 60.1188 45.9268 60.1188 50.3123V51.036H61.7975C64.6656 51.036 66.9986 48.6826 66.9986 45.7893V40.188C67 37.4973 65.2933 35.1461 62.7545 34.3392ZM37.3717 3.62241H39.9615V15.8773H37.3717V3.62241ZM33.2388 5.43089H35.937V14.1332H33.2388C30.8607 14.1332 28.9252 12.1814 28.9252 9.78168C28.9259 7.3834 30.8607 5.43089 33.2388 5.43089ZM65.5652 45.79C65.5652 47.8851 63.8758 49.5894 61.7989 49.5894H61.5277C61.1604 44.7429 57.1366 40.9124 52.2433 40.9124C47.3463 40.9124 43.3196 44.7429 42.9516 49.5894H31.878C31.5099 44.7429 27.4832 40.9124 22.5863 40.9124C17.693 40.9124 13.6684 44.7429 13.3018 49.5894H12.2128C11.3799 49.5894 10.6044 49.2138 10.0843 48.5589C9.56709 47.9068 9.37483 47.0659 9.55633 46.2503L13.2215 29.5115C14.0242 25.8446 17.3113 23.1821 21.0367 23.1821H39.8826C41.161 23.1821 42.4035 23.6402 43.3792 24.4732L53.1092 32.7659L62.3219 35.7192C64.2617 36.3358 65.5652 38.132 65.5652 40.1887V45.79ZM52.2397 43.7985C48.6793 43.7985 45.7832 46.7207 45.7832 50.3116C45.7832 53.9025 48.6793 56.8248 52.2397 56.8248C55.8001 56.8248 58.6962 53.9025 58.6962 50.3116C58.6962 46.7207 55.8001 43.7985 52.2397 43.7985ZM52.2397 55.3774C49.4713 55.3774 47.2179 53.105 47.2179 50.3116C47.2179 47.5182 49.4713 45.2458 52.2397 45.2458C55.0081 45.2458 57.2614 47.5182 57.2614 50.3116C57.2614 53.105 55.0081 55.3774 52.2397 55.3774Z" fill="#CDAE6C" stroke="#CDAE6C" stroke-width="0.5"/>
</svg>
