<svg width="57" height="55" viewBox="0 0 57 55" fill="none" xmlns="http://www.w3.org/2000/svg">
<g clip-path="url(#clip0_3_9133)">
<path d="M52.0568 52.4671V52.3171V17.5973V17.3542L52.2741 17.4633L53.0142 17.8348C53.2963 17.976 53.6228 17.9991 53.9219 17.899C54.07 17.8495 54.207 17.7712 54.3249 17.6686C54.4428 17.566 54.5395 17.4411 54.6093 17.301C54.6791 17.161 54.7207 17.0085 54.7317 16.8523C54.7427 16.6961 54.7229 16.5393 54.6734 16.3907C54.6239 16.2422 54.5458 16.105 54.4434 15.9867C54.341 15.8685 54.2164 15.7717 54.0767 15.7018L54.0766 15.7018L24.627 0.945717C24.3448 0.80452 24.0183 0.78142 23.7193 0.881476C23.4202 0.981535 23.1729 1.1966 23.0319 1.47947C22.8909 1.76234 22.8678 2.08979 22.9678 2.38974C23.0677 2.68968 23.2824 2.93746 23.5645 3.07866L23.5645 3.07868L25.5015 4.04855L25.5844 4.09003V4.18268V15.9393V16.0319L25.5015 16.0734L1.98058 27.8581L1.9804 27.8582C1.74049 27.978 1.54798 28.1757 1.4342 28.419C1.32041 28.6624 1.29206 28.9372 1.35377 29.1988C1.41548 29.4604 1.56361 29.6933 1.77403 29.8598C1.98437 30.0263 2.24462 30.1166 2.51254 30.1161C2.69709 30.1154 2.87902 30.0722 3.04426 29.9898L52.0568 52.4671ZM52.0568 52.4671H52.2068H54.8841C55.1992 52.4671 55.5015 52.5925 55.7245 52.8159C55.9474 53.0393 56.0727 53.3424 56.0727 53.6585C56.0727 53.9746 55.9474 54.2777 55.7245 54.5011C55.5015 54.7245 55.1992 54.85 54.8841 54.85H1.33911C1.02397 54.85 0.721676 54.7245 0.498741 54.5011C0.275796 54.2777 0.150488 53.9746 0.150488 53.6585C0.150488 53.3424 0.275796 53.0393 0.498741 52.8159C0.721676 52.5925 1.02397 52.4671 1.33911 52.4671H4.01636H4.16636V52.3171V29.6705V29.4275L3.94917 29.5364L3.04447 29.9897L52.0568 52.4671ZM6.54361 52.3171V52.4671H6.69361H25.4344H25.5844V52.3171V19.0971V18.8541L25.3672 18.963L6.62641 28.3532L6.54361 28.3947V28.4873V52.3171ZM35.9933 52.3171V52.4671H36.1433H41.4978H41.6478V52.3171V41.5854V41.4354H41.4978H36.1433H35.9933V41.5854V52.3171ZM44.0251 52.3171V52.4671H44.1751H49.5296H49.6796V52.3171V16.4141V16.3215L49.5968 16.28L28.1788 5.54833L27.9616 5.4395V5.68243V52.3171V52.4671H28.1116H33.4661H33.6161V52.3171V41.5854C33.6161 40.9135 33.8824 40.2692 34.3564 39.7942C34.8304 39.3192 35.4732 39.0524 36.1433 39.0524H41.4978C42.168 39.0524 42.8108 39.3192 43.2848 39.7942C43.7588 40.2692 44.0251 40.9135 44.0251 41.5854V52.3171ZM17.4026 40.3939H17.5526V40.2439V37.561V37.411H17.4026H14.7254H14.5754V37.561V40.2439V40.3939H14.7254H17.4026ZM36.673 22.2663C37.3087 21.8406 38.0561 21.6134 38.8206 21.6134C39.8458 21.6134 40.829 22.0215 41.5541 22.7481C42.2791 23.4746 42.6865 24.4601 42.6865 25.4878C42.6865 26.2542 42.4597 27.0033 42.0349 27.6404C41.61 28.2776 41.0063 28.7741 40.2999 29.0673C39.5935 29.3605 38.8163 29.4372 38.0665 29.2878C37.3166 29.1383 36.6278 28.7693 36.0871 28.2275C35.5464 27.6857 35.1782 26.9953 35.029 26.2437C34.8798 25.4921 34.9564 24.713 35.249 24.005C35.5417 23.297 36.0372 22.692 36.673 22.2663ZM37.9934 26.7278C38.2383 26.8918 38.5261 26.9793 38.8206 26.9793C39.2155 26.9793 39.5942 26.8221 39.8733 26.5423C40.1525 26.2626 40.3092 25.8833 40.3092 25.4878C40.3092 25.1929 40.222 24.9046 40.0584 24.6593C39.8949 24.414 39.6624 24.2228 39.3904 24.1099C39.1183 23.997 38.8189 23.9674 38.5301 24.025C38.2413 24.0826 37.976 24.2247 37.7679 24.4333C37.5597 24.6419 37.418 24.9076 37.3606 25.1969C37.3031 25.4861 37.3326 25.786 37.4452 26.0585C37.5579 26.3309 37.7486 26.5639 37.9934 26.7278ZM13.3867 35.028H18.7412C19.0564 35.028 19.3587 35.1535 19.5816 35.3769C19.8045 35.6003 19.9299 35.9034 19.9299 36.2195V41.5854C19.9299 41.9015 19.8045 42.2046 19.5816 42.428C19.3587 42.6514 19.0564 42.7768 18.7412 42.7768H13.3867C13.0716 42.7768 12.7693 42.6514 12.5464 42.428C12.3234 42.2046 12.1981 41.9015 12.1981 41.5854V36.2195C12.1981 35.9034 12.3234 35.6003 12.5464 35.3769C12.7693 35.1535 13.0716 35.028 13.3867 35.028Z" fill="#CDAE6C" stroke="white" stroke-width="0.3"/>
</g>
<defs>
<clipPath id="clip0_3_9133">
<rect width="56.2222" height="55" fill="white"/>
</clipPath>
</defs>
</svg>
