<svg width="28" height="27" viewBox="0 0 28 27" fill="none" xmlns="http://www.w3.org/2000/svg">
<path d="M14.0712 7.08546C17.7475 7.08546 20.7819 10.1198 20.7819 13.7961C20.7819 17.5307 17.7475 20.5068 14.0712 20.5068C10.3366 20.5068 7.36054 17.5307 7.36054 13.7961C7.36054 10.1198 10.3366 7.08546 14.0712 7.08546ZM14.0712 18.1726C16.4637 18.1726 18.3894 16.247 18.3894 13.7961C18.3894 11.4036 16.4637 9.47795 14.0712 9.47795C11.6203 9.47795 9.69468 11.4036 9.69468 13.7961C9.69468 16.247 11.6787 18.1726 14.0712 18.1726ZM22.5908 6.85204C22.5908 7.72735 21.8906 8.42759 21.0153 8.42759C20.14 8.42759 19.4397 7.72735 19.4397 6.85204C19.4397 5.97674 20.14 5.2765 21.0153 5.2765C21.8906 5.2765 22.5908 5.97674 22.5908 6.85204ZM27.0257 8.42759C27.1424 10.5867 27.1424 17.0639 27.0257 19.223C26.909 21.3237 26.4422 23.1327 24.925 24.7082C23.4078 26.2254 21.5405 26.6923 19.4397 26.809C17.2806 26.9257 10.8034 26.9257 8.64432 26.809C6.54359 26.6923 4.73463 26.2254 3.15908 24.7082C1.64189 23.1327 1.17506 21.3237 1.05835 19.223C0.941646 17.0639 0.941646 10.5867 1.05835 8.42759C1.17506 6.32686 1.64189 4.45955 3.15908 2.94235C4.73463 1.42516 6.54359 0.958332 8.64432 0.841625C10.8034 0.724918 17.2806 0.724918 19.4397 0.841625C21.5405 0.958332 23.4078 1.42516 24.925 2.94235C26.4422 4.45955 26.909 6.32686 27.0257 8.42759ZM24.2247 21.4988C24.925 19.8065 24.7499 15.7218 24.7499 13.7961C24.7499 11.9288 24.925 7.84405 24.2247 6.09345C23.7579 4.98473 22.8826 4.05107 21.7739 3.6426C20.0233 2.94235 15.9385 3.11741 14.0712 3.11741C12.1455 3.11741 8.06078 2.94235 6.36853 3.6426C5.20146 4.10942 4.32615 4.98473 3.85932 6.09345C3.15908 7.84405 3.33414 11.9288 3.33414 13.7961C3.33414 15.7218 3.15908 19.8065 3.85932 21.4988C4.32615 22.6659 5.20146 23.5412 6.36853 24.008C8.06078 24.7082 12.1455 24.5332 14.0712 24.5332C15.9385 24.5332 20.0233 24.7082 21.7739 24.008C22.8826 23.5412 23.8162 22.6659 24.2247 21.4988Z" fill="#CDAE6C"/>
</svg>
