<svg width="40" height="55" viewBox="0 0 40 55" fill="none" xmlns="http://www.w3.org/2000/svg">
<g clip-path="url(#clip0_3_9255)">
<path d="M34.8151 53.6832H5.22335C2.86553 53.6832 0.947033 51.7563 0.947033 49.3864V22.9404C0.947033 22.4654 1.32956 22.0811 1.8023 22.0811H38.2362C38.7089 22.0811 39.0914 22.4654 39.0914 22.9404V49.3864C39.0914 51.7563 37.1729 53.6832 34.8151 53.6832ZM2.65756 23.7998V49.3864C2.65756 50.808 3.80849 51.9645 5.22335 51.9645H34.8151C36.23 51.9645 37.3809 50.808 37.3809 49.3864V23.7998H2.65756Z" fill="#CDAE6C" stroke="#CDAE6C" stroke-width="0.977778"/>
<path d="M33.7405 23.799H6.2986C5.82586 23.799 5.44333 23.4146 5.44333 22.9396V15.4368C5.44333 7.36005 11.9823 0.790527 20.0196 0.790527C28.0569 0.790527 34.5958 7.36005 34.5958 15.4368V22.9396C34.5958 23.4146 34.2132 23.799 33.7405 23.799ZM7.15386 22.0802H32.8853V15.4368C32.8853 8.30838 27.1139 2.50928 20.0196 2.50928C12.9252 2.50928 7.15386 8.30838 7.15386 15.4368V22.0802Z" fill="#CDAE6C" stroke="#CDAE6C" stroke-width="0.977778"/>
<path d="M20.0204 40.3188C17.6626 40.3188 15.7441 38.392 15.7441 36.022C15.7441 33.652 17.6626 31.7251 20.0204 31.7251C22.3782 31.7251 24.2967 33.652 24.2967 36.022C24.2967 38.392 22.3782 40.3188 20.0204 40.3188ZM20.0204 33.4438C18.6055 33.4438 17.4546 34.6003 17.4546 36.022C17.4546 37.4436 18.6055 38.6001 20.0204 38.6001C21.4352 38.6001 22.5862 37.4436 22.5862 36.022C22.5862 34.6003 21.4352 33.4438 20.0204 33.4438Z" fill="#CDAE6C" stroke="#CDAE6C" stroke-width="0.977778"/>
<path d="M20.02 45.0883C19.5473 45.0883 19.1647 44.704 19.1647 44.229V39.4604C19.1647 38.9854 19.5473 38.6011 20.02 38.6011C20.4927 38.6011 20.8753 38.9854 20.8753 39.4604V44.229C20.8753 44.704 20.4927 45.0883 20.02 45.0883Z" fill="#CDAE6C" stroke="#CDAE6C" stroke-width="0.977778"/>
</g>
<defs>
<clipPath id="clip0_3_9255">
<rect width="40" height="55" fill="white"/>
</clipPath>
</defs>
</svg>
