<svg width="32" height="24" viewBox="0 0 32 24" fill="none" xmlns="http://www.w3.org/2000/svg">
<path d="M3.56652 0.960938C2.00117 0.960938 0.71875 2.27111 0.71875 3.87034V19.8721C0.71875 21.4713 2.00117 22.7815 3.56652 22.7815H27.7726C29.3379 22.7815 30.6203 21.4713 30.6203 19.8721V3.87034C30.6203 2.27111 29.3379 0.960938 27.7726 0.960938H3.56652ZM3.56652 2.41564H27.7726C27.9065 2.41564 28.0289 2.43902 28.1508 2.47246L16.6485 14.326C16.0884 14.9042 15.2274 14.9041 14.6684 14.326L3.19942 2.4611C3.31727 2.43004 3.43758 2.41564 3.56652 2.41564ZM2.19826 3.50667L10.6748 12.2689L2.20938 20.2926C2.1708 20.1584 2.14263 20.021 2.14263 19.8721V3.87034C2.14263 3.74217 2.1694 3.62416 2.19826 3.50667ZM29.1408 3.50667C29.1697 3.62416 29.1964 3.74217 29.1964 3.87034V19.8721C29.1964 20.021 29.1683 20.1584 29.1297 20.2926L20.6643 12.2576L29.1408 3.50667ZM19.652 13.2918L28.084 21.2813C27.9828 21.3038 27.8815 21.3268 27.7726 21.3268H3.56652C3.45756 21.3268 3.35628 21.3038 3.25505 21.2813L11.676 13.3032L13.6561 15.3488C14.7553 16.4857 16.5611 16.4841 17.6608 15.3488L19.652 13.2918Z" fill="#CDAE6C" stroke="#CDAE6C" stroke-width="0.808159"/>
</svg>
