<svg width="66" height="55" viewBox="0 0 66 55" fill="none" xmlns="http://www.w3.org/2000/svg">
<g clip-path="url(#clip0_3_9325)">
<path d="M33.8049 54.5333C34.1251 54.5333 34.4322 54.4016 34.6586 54.1672C34.8851 53.9328 35.0123 53.6148 35.0123 53.2833V42.7583C45.363 42.3666 54.9893 36.9916 56.3818 30.675C57.581 25.1916 65.163 15.6333 65.2354 15.5416C65.3787 15.3616 65.4705 15.1437 65.5004 14.9125C65.5302 14.6813 65.497 14.446 65.4045 14.2333C65.3154 14.0267 65.1742 13.8488 64.9958 13.7183C64.8173 13.5878 64.6081 13.5095 64.3903 13.4916C53.9269 13.1 45.8781 15.8333 40.3164 21.5166C38.5164 23.389 37.0044 25.5362 35.8332 27.8833C35.4147 20.9166 33.2657 15.1416 29.3057 10.6666C19.454 -0.475017 2.32616 0.458317 1.60982 0.499984C1.3904 0.510416 1.1779 0.582623 0.995183 0.708827C0.812468 0.835031 0.666467 1.01045 0.572904 1.21619C0.47934 1.42194 0.44176 1.65021 0.464209 1.87643C0.486658 2.10265 0.568287 2.31824 0.700304 2.49998C5.17605 9.04626 8.82239 16.1599 11.5501 23.6666C15.2927 34.3083 28.6457 37.575 32.7908 38.3333C32.6703 39.3954 32.6111 40.4639 32.6137 41.5333V53.2833C32.6137 53.612 32.7387 53.9274 32.9616 54.1614C33.1846 54.3953 33.4875 54.5289 33.8049 54.5333ZM13.8279 22.8083C11.3081 15.8246 8.00135 9.17308 3.97616 2.99165C8.80543 3.13332 20.4601 4.35832 27.5349 12.3666C32.4608 17.95 34.3442 25.85 33.1691 35.8583C29.2654 35.1083 17.0232 32.025 13.8279 22.8083ZM41.9986 23.2916C46.6266 18.5166 53.2669 16.0583 61.8389 15.9583C59.4242 19.2083 54.9974 25.65 54.0154 30.125C53.0254 34.7416 45.0732 39.8666 35.0606 40.2583C35.2376 37.2333 36.2196 29.2416 42.0227 23.3333L41.9986 23.2916Z" fill="#CDAE6C"/>
</g>
<defs>
<clipPath id="clip0_3_9325">
<rect width="66" height="55" fill="white"/>
</clipPath>
</defs>
</svg>
