<svg width="59" height="55" viewBox="0 0 59 55" fill="none" xmlns="http://www.w3.org/2000/svg">
<g clip-path="url(#clip0_3_9342)">
<g clip-path="url(#clip1_3_9342)">
<path d="M34.2863 37.0748C34.9619 37.0748 35.5085 36.5174 35.5085 35.83V7.02079C35.5085 5.07631 37.0614 3.49411 38.9711 3.49411H42.7452C43.4207 3.49411 43.9674 2.93672 43.9674 2.24925C43.9674 1.56178 43.4207 1.00439 42.7452 1.00439H38.9711C35.7138 1.00439 33.0641 3.7032 33.0641 7.02079V35.83C33.0641 36.5174 33.6107 37.0748 34.2863 37.0748Z" fill="#CDAE6C"/>
<path d="M16.584 34.0101C17.2596 34.0101 17.8063 33.4527 17.8063 32.7652V7.02079C17.8063 5.07631 19.3591 3.49411 21.2688 3.49411H25.0429C25.7185 3.49411 26.2651 2.93672 26.2651 2.24925C26.2651 1.56178 25.7185 1.00439 25.0429 1.00439H21.2688C18.0116 1.00439 15.3618 3.7032 15.3618 7.02079V32.7652C15.3618 33.4527 15.9085 34.0101 16.584 34.0101Z" fill="#CDAE6C"/>
<path d="M16.5873 11.5315H34.2869C34.9624 11.5315 35.5091 10.9741 35.5091 10.2866C35.5091 9.59914 34.9624 9.04175 34.2869 9.04175H16.5873C15.9118 9.04175 15.3651 9.59914 15.3651 10.2866C15.3651 10.9741 15.9118 11.5315 16.5873 11.5315Z" fill="#CDAE6C"/>
<path d="M16.5873 19.4834H34.2869C34.9624 19.4834 35.5091 18.926 35.5091 18.2385C35.5091 17.551 34.9624 16.9937 34.2869 16.9937H16.5873C15.9118 16.9937 15.3651 17.551 15.3651 18.2385C15.3651 18.926 15.9118 19.4834 16.5873 19.4834Z" fill="#CDAE6C"/>
<path d="M16.5873 27.4389H34.2869C34.9624 27.4389 35.5091 26.8815 35.5091 26.1941C35.5091 25.5066 34.9624 24.9492 34.2869 24.9492H16.5873C15.9118 24.9492 15.3651 25.5066 15.3651 26.1941C15.3651 26.8815 15.9118 27.4389 16.5873 27.4389Z" fill="#CDAE6C"/>
<path d="M29.6639 38.3139C31.8339 38.3139 34.0026 37.6192 35.9803 36.2297C39.0646 34.0621 42.7503 34.0609 45.8369 36.2297C49.7888 39.0069 54.5142 39.0093 58.4685 36.2297C59.0247 35.8394 59.1644 35.0638 58.7812 34.4979C58.3981 33.932 57.6366 33.788 57.0816 34.18C53.9938 36.3494 50.3092 36.3482 47.2238 34.18C43.2695 31.4016 38.5465 31.4028 34.5922 34.18C31.5056 36.3488 27.8211 36.3488 24.7369 34.18C20.7825 31.4022 16.0584 31.401 12.104 34.18C9.01865 36.3482 5.33408 36.3494 2.2463 34.18C1.69248 33.788 0.930981 33.932 0.54665 34.4979C0.163509 35.0638 0.303158 35.8394 0.859367 36.2297C4.81249 39.0069 9.53786 39.0093 13.491 36.2297C16.5788 34.0609 20.2633 34.0633 23.3487 36.2297C25.3253 37.6192 27.4952 38.3139 29.6639 38.3139Z" fill="#CDAE6C"/>
<path d="M29.6639 46.2669C31.8339 46.2675 34.0026 45.5727 35.9792 44.1832C39.0657 42.0144 42.7515 42.0144 45.8357 44.1832C49.79 46.9598 54.5142 46.961 58.4685 44.1832C59.0247 43.793 59.1644 43.0174 58.7812 42.4515C58.3981 41.885 57.6366 41.7421 57.0816 42.1336C53.9962 44.3005 50.3116 44.3017 47.2238 42.1336C43.2695 39.3539 38.5465 39.3551 34.5922 42.1336C31.5056 44.3023 27.8223 44.3023 24.7357 42.1336C20.7837 39.3545 16.0584 39.3533 12.104 42.1336C9.01627 44.3017 5.3317 44.3005 2.2463 42.1336C1.69248 41.7421 0.930981 41.885 0.54665 42.4515C0.163509 43.0174 0.303158 43.793 0.859367 44.1832C4.81368 46.9616 9.53905 46.9604 13.491 44.1832C16.5764 42.015 20.2609 42.0138 23.3487 44.1832C25.3253 45.5721 27.4952 46.2669 29.6639 46.2669Z" fill="#CDAE6C"/>
<path d="M29.6639 54.2195C31.8339 54.2195 34.0026 53.5247 35.9803 52.1352C39.0646 49.9676 42.7503 49.9664 45.8369 52.1352C49.7888 54.913 54.5142 54.9142 58.4685 52.1352C59.0247 51.7449 59.1644 50.9693 58.7812 50.4034C58.3981 49.8375 57.6366 49.6935 57.0816 50.0855C53.9938 52.2549 50.3092 52.2537 47.2238 50.0855C43.2695 47.3065 38.5465 47.3089 34.5922 50.0855C31.5056 52.2543 27.8211 52.2543 24.7369 50.0855C20.7825 47.3083 16.0584 47.3059 12.104 50.0855C9.01865 52.2537 5.33408 52.2549 2.2463 50.0855C1.69248 49.6935 0.930981 49.8375 0.54665 50.4034C0.163509 50.9693 0.303158 51.7449 0.859367 52.1352C4.81249 54.913 9.53786 54.9142 13.491 52.1352C16.5788 49.967 20.2633 49.9682 23.3487 52.1352C25.3253 53.5247 27.4952 54.2195 29.6639 54.2195Z" fill="#CDAE6C"/>
</g>
</g>
<defs>
<clipPath id="clip0_3_9342">
<rect width="58.6669" height="54.7737" fill="white" transform="matrix(-1 0 0 1 59 0.226807)"/>
</clipPath>
<clipPath id="clip1_3_9342">
<rect width="58.6669" height="54.7737" fill="white" transform="matrix(-1 0 0 1 58.9993 0.226562)"/>
</clipPath>
</defs>
</svg>
