<svg width="29" height="27" viewBox="0 0 29 27" fill="none" xmlns="http://www.w3.org/2000/svg">
<path d="M11.8673 0.101885C11.9337 0.0339618 12.0335 0 12.1664 0C12.3659 0 12.5321 0.135849 12.6651 0.407548C12.798 0.679247 12.7648 0.88302 12.5653 1.01887C8.11096 5.02641 5.51811 9.30566 4.7868 13.8566C4.72031 14.1962 4.68707 14.6377 4.68707 15.1811C4.68707 15.7245 4.72031 16.0981 4.7868 16.3019C5.25218 15.8264 6.04998 15.5887 7.18019 15.5887C8.84227 15.5887 10.1387 16.1321 11.0695 17.2189C12.0002 18.3057 12.4656 19.5962 12.4656 21.0906C12.4656 22.7208 11.9337 24.1132 10.87 25.2679C9.87277 26.4226 8.37689 27 6.38239 27C4.32141 27 2.72581 26.3547 1.5956 25.0642C0.531866 23.7736 0 21.9736 0 19.6642C0 18.3057 0.132967 17.0491 0.3989 15.8943C0.930766 13.2453 2.26043 10.4604 4.3879 7.53962C6.51536 4.61887 9.00848 2.13962 11.8673 0.101885ZM28.1224 0.101885C28.1889 0.0339618 28.2886 0 28.4216 0C28.621 0 28.7873 0.135849 28.9202 0.407548C29.0532 0.679247 29.0199 0.88302 28.8205 1.01887C24.3661 5.02641 21.7733 9.30566 21.042 13.8566C20.9755 14.1962 20.9422 14.6377 20.9422 15.1811C20.9422 15.7245 20.9755 16.0981 21.042 16.3019C21.5073 15.8264 22.3051 15.5887 23.4354 15.5887C25.0974 15.5887 26.3939 16.1321 27.3246 17.2189C28.2554 18.3057 28.7208 19.5962 28.7208 21.0906C28.7208 22.7208 28.1889 24.1132 27.1252 25.2679C26.1279 26.4226 24.6321 27 22.6376 27C20.5766 27 18.981 26.3547 17.8508 25.0642C16.787 23.7736 16.2552 21.9736 16.2552 19.6642C16.2552 18.3057 16.3881 17.0491 16.6541 15.8943C17.1859 13.2453 18.5156 10.4604 20.6431 7.53962C22.7705 4.61887 25.2636 2.13962 28.1224 0.101885Z" fill="#CDAE6C"/>
</svg>
