<svg width="27" height="27" viewBox="0 0 27 27" fill="none" xmlns="http://www.w3.org/2000/svg">
<path d="M22.5337 4.57625C24.9846 7.0271 26.5018 10.2365 26.5018 13.7378C26.5018 20.8569 20.5497 26.6923 13.3722 26.6923C11.2131 26.6923 9.11241 26.1087 7.18674 25.1167L0.359375 26.8673L2.16834 20.1567C1.05962 18.231 0.417729 16.0136 0.417729 13.6794C0.417729 6.56027 6.25308 0.724918 13.3722 0.724918C16.8734 0.724918 20.1412 2.1254 22.5337 4.57625ZM13.3722 24.4748C19.3243 24.4748 24.2843 19.6315 24.2843 13.7378C24.2843 10.8201 23.0589 8.13582 21.0165 6.09345C18.9742 4.05107 16.2899 2.94235 13.4306 2.94235C7.47851 2.94235 2.63516 7.7857 2.63516 13.6794C2.63516 15.7218 3.2187 17.7058 4.26906 19.4564L4.56083 19.8649L3.45211 23.8329L7.53686 22.7242L7.88698 22.9576C9.57924 23.9496 11.4466 24.4748 13.3722 24.4748ZM19.3243 16.422C19.6161 16.5971 19.8495 16.6554 19.9078 16.8305C20.0245 16.9472 20.0245 17.5891 19.7328 18.3477C19.441 19.1063 18.1572 19.8065 17.5737 19.8649C16.5233 20.0399 15.7064 19.9816 13.664 19.0479C10.3962 17.6475 8.29546 14.3797 8.1204 14.2046C7.94534 13.9712 6.83662 12.454 6.83662 10.8201C6.83662 9.24454 7.65357 8.48594 7.94534 8.13582C8.23711 7.7857 8.58723 7.72735 8.82064 7.72735C8.9957 7.72735 9.22912 7.72735 9.40418 7.72735C9.63759 7.72735 9.87101 7.66899 10.1628 8.31088C10.3962 8.95277 11.0964 10.5283 11.1548 10.7034C11.2131 10.8784 11.2715 11.0535 11.1548 11.2869C10.5712 12.5123 9.87101 12.454 10.2211 13.0375C11.5049 15.1966 12.7303 15.9552 14.656 16.8889C14.9478 17.0639 15.1228 17.0056 15.3562 16.8305C15.5313 16.5971 16.1732 15.8385 16.3483 15.5467C16.5817 15.1966 16.8151 15.255 17.1068 15.3717C17.3986 15.4884 18.9742 16.247 19.3243 16.422Z" fill="#CDAE6C"/>
</svg>
